<svg 
 xmlns="http://www.w3.org/2000/svg"
 xmlns:xlink="http://www.w3.org/1999/xlink"
 width="36px" height="36px">
<path fill-rule="evenodd"  fill="rgb(255, 255, 255)"
 d="M8.789,28.406 C8.012,28.406 7.383,27.777 7.383,27.000 C7.383,26.223 8.012,25.594 8.789,25.594 C9.566,25.594 10.195,26.223 10.195,27.000 C10.195,27.777 9.566,28.406 8.789,28.406 ZM8.789,16.172 C8.012,16.172 7.383,15.542 7.383,14.766 C7.383,13.989 8.012,13.359 8.789,13.359 C9.566,13.359 10.195,13.989 10.195,14.766 C10.195,15.542 9.566,16.172 8.789,16.172 ZM8.789,22.289 C8.012,22.289 7.383,21.659 7.383,20.883 C7.383,20.106 8.012,19.477 8.789,19.477 C9.566,19.477 10.195,20.106 10.195,20.883 C10.195,21.659 9.566,22.289 8.789,22.289 ZM14.906,28.406 C14.130,28.406 13.500,27.777 13.500,27.000 C13.500,26.223 14.130,25.594 14.906,25.594 C15.683,25.594 16.312,26.223 16.312,27.000 C16.312,27.777 15.683,28.406 14.906,28.406 ZM14.906,16.172 C14.130,16.172 13.500,15.542 13.500,14.766 C13.500,13.989 14.130,13.359 14.906,13.359 C15.683,13.359 16.312,13.989 16.312,14.766 C16.312,15.542 15.683,16.172 14.906,16.172 ZM14.906,22.289 C14.130,22.289 13.500,21.659 13.500,20.883 C13.500,20.106 14.130,19.477 14.906,19.477 C15.683,19.477 16.312,20.106 16.312,20.883 C16.312,21.659 15.683,22.289 14.906,22.289 ZM34.594,17.859 C33.817,17.859 33.187,17.230 33.187,16.453 L33.187,8.437 C33.187,6.887 31.926,5.625 30.375,5.625 L28.547,5.625 L28.547,7.031 C28.547,7.808 27.917,8.437 27.141,8.437 C26.364,8.437 25.734,7.808 25.734,7.031 L25.734,5.625 L19.336,5.625 L19.336,7.031 C19.336,7.808 18.706,8.437 17.930,8.437 C17.153,8.437 16.523,7.808 16.523,7.031 L16.523,5.625 L10.195,5.625 L10.195,7.031 C10.195,7.808 9.566,8.437 8.789,8.437 C8.012,8.437 7.383,7.808 7.383,7.031 L7.383,5.625 L5.625,5.625 C4.074,5.625 2.812,6.887 2.812,8.437 L2.812,30.375 C2.812,31.926 4.074,33.187 5.625,33.187 L16.383,33.187 C17.159,33.187 17.789,33.817 17.789,34.594 C17.789,35.370 17.159,36.000 16.383,36.000 L5.625,36.000 C2.523,36.000 -0.000,33.477 -0.000,30.375 L-0.000,8.437 C-0.000,5.336 2.523,2.812 5.625,2.812 L7.383,2.812 L7.383,1.406 C7.383,0.630 8.012,-0.000 8.789,-0.000 C9.566,-0.000 10.195,0.630 10.195,1.406 L10.195,2.812 L16.523,2.812 L16.523,1.406 C16.523,0.630 17.153,-0.000 17.930,-0.000 C18.706,-0.000 19.336,0.630 19.336,1.406 L19.336,2.812 L25.734,2.812 L25.734,1.406 C25.734,0.630 26.364,-0.000 27.141,-0.000 C27.917,-0.000 28.547,0.630 28.547,1.406 L28.547,2.812 L30.375,2.812 C33.477,2.812 36.000,5.336 36.000,8.437 L36.000,16.453 C36.000,17.230 35.370,17.859 34.594,17.859 ZM19.617,14.766 C19.617,13.989 20.247,13.359 21.023,13.359 C21.800,13.359 22.430,13.989 22.430,14.766 C22.430,15.542 21.800,16.172 21.023,16.172 C20.247,16.172 19.617,15.542 19.617,14.766 ZM25.734,14.766 C25.734,13.989 26.364,13.359 27.141,13.359 C27.917,13.359 28.547,13.989 28.547,14.766 C28.547,15.542 27.917,16.172 27.141,16.172 C26.364,16.172 25.734,15.542 25.734,14.766 ZM27.492,18.984 C32.183,18.984 36.000,22.801 36.000,27.492 C36.000,32.183 32.183,36.000 27.492,36.000 C22.801,36.000 18.984,32.183 18.984,27.492 C18.984,22.801 22.801,18.984 27.492,18.984 ZM27.492,33.187 C30.632,33.187 33.187,30.633 33.187,27.492 C33.187,24.352 30.632,21.797 27.492,21.797 C24.352,21.797 21.797,24.352 21.797,27.492 C21.797,30.633 24.352,33.187 27.492,33.187 ZM27.492,23.203 C28.269,23.203 28.898,23.833 28.898,24.609 L28.898,26.086 L29.531,26.086 C30.308,26.086 30.937,26.715 30.937,27.492 C30.937,28.269 30.308,28.898 29.531,28.898 L27.492,28.898 C26.715,28.898 26.086,28.269 26.086,27.492 L26.086,24.609 C26.086,23.833 26.715,23.203 27.492,23.203 Z"/>
</svg>