<svg 
 xmlns="http://www.w3.org/2000/svg"
 xmlns:xlink="http://www.w3.org/1999/xlink"
 width="33px" height="36px">
<path fill-rule="evenodd"  fill="rgb(255, 255, 255)"
 d="M32.783,24.886 L26.875,34.589 C26.862,34.610 26.849,34.631 26.835,34.651 C26.298,35.436 25.501,35.925 24.646,35.992 C24.579,35.997 24.511,36.000 24.444,36.000 C23.659,36.000 22.897,35.644 22.326,35.005 L18.513,30.700 C18.038,30.163 18.022,29.274 18.479,28.715 C18.935,28.156 19.691,28.138 20.167,28.675 L23.976,32.976 C24.161,33.183 24.376,33.199 24.487,33.191 C24.595,33.182 24.797,33.135 24.957,32.916 L30.841,23.252 C31.225,22.621 31.971,22.476 32.507,22.927 C33.043,23.378 33.166,24.255 32.783,24.886 ZM29.673,16.252 C28.164,15.014 26.389,14.359 24.541,14.359 C22.173,14.359 19.965,15.417 18.280,17.347 C18.152,19.210 17.415,20.873 16.303,22.061 C17.139,22.443 17.937,22.943 18.684,23.556 C19.225,23.999 19.358,24.874 18.980,25.510 C18.603,26.146 17.859,26.302 17.318,25.858 C15.809,24.620 14.034,23.966 12.186,23.966 C8.213,23.966 4.615,26.978 3.435,31.292 C3.317,31.724 3.380,32.182 3.607,32.549 C3.835,32.916 4.186,33.126 4.572,33.126 L14.957,33.126 C15.617,33.126 16.151,33.755 16.151,34.530 C16.151,35.305 15.617,35.934 14.957,35.934 L4.572,35.934 C3.414,35.934 2.360,35.303 1.678,34.203 C0.996,33.102 0.808,31.728 1.163,30.432 C2.232,26.525 4.857,23.461 8.095,22.034 C6.884,20.725 6.124,18.847 6.124,16.765 C6.124,12.817 8.855,9.606 12.212,9.606 C14.768,9.606 16.961,11.468 17.862,14.099 C18.515,13.540 19.218,13.066 19.964,12.679 C20.129,12.595 20.294,12.514 20.460,12.439 C19.243,11.129 18.479,9.247 18.479,7.158 C18.479,3.211 21.210,-0.000 24.567,-0.000 C27.924,-0.000 30.655,3.211 30.655,7.158 C30.655,9.255 29.884,11.144 28.658,12.455 C29.494,12.837 30.292,13.336 31.039,13.949 C31.580,14.393 31.713,15.268 31.335,15.904 C30.958,16.539 30.214,16.695 29.673,16.252 ZM12.212,12.413 C10.171,12.413 8.511,14.365 8.511,16.765 C8.511,19.164 10.171,21.116 12.212,21.116 C14.252,21.116 15.912,19.164 15.912,16.765 C15.912,14.365 14.252,12.413 12.212,12.413 ZM24.567,2.807 C22.526,2.807 20.866,4.759 20.866,7.158 C20.866,9.558 22.526,11.510 24.567,11.510 C26.607,11.510 28.267,9.558 28.267,7.158 C28.267,4.759 26.607,2.807 24.567,2.807 Z"/>
</svg>