<svg width="32" height="38" viewBox="-2 -2 47 56" xmlns="http://www.w3.org/2000/svg" xmlns:xlink="http://www.w3.org/1999/xlink">
    <defs>
        <path d="M6.891 36.413a21.374 21.374 0 0 1-1.483-1.481l-.143-.142h.015C1.99 31.1 0 26.279 0 21.003 0 9.403 9.626 0 21.5 0S43 9.403 43 21.003c0 3.85-1.06 7.457-2.91 10.56a21.083 21.083 0 0 1-2.37 3.227h.015l-.143.142c-.47.517-.964 1.011-1.483 1.48L21.5 51 6.891 36.413z" id="a"/>
    </defs>
    <g fill="none" fill-rule="evenodd">
        <mask id="b" fill="#fff">
            <use xlink:href="#a"/>
        </mask>
        <use fill="#ababab" xlink:href="#a"/>
        <g mask="url(#b)" fill="#FEFEFE">
            <path d="M10.533 20c.96 0 1.777-.34 2.453-1.018C13.662 18.303 14 17.476 14 16.5c0-.976-.338-1.803-1.014-2.482A3.334 3.334 0 0 0 10.533 13c-.96 0-1.789.34-2.486 1.018A3.33 3.33 0 0 0 7 16.5a3.33 3.33 0 0 0 1.047 2.482C8.744 19.66 9.573 20 10.533 20M29.58 25.096c.198-.15.396-.125.594.075l.743 1.124c.148.2.099.375-.15.525l-5.346 4.047c-.199.2-.397.175-.595-.075l-.743-1.05c-.148-.2-.099-.399.15-.599l5.346-4.047zM25 22.238L23.023 19 22 19.698 23.977 23zM20 13.495L14.105 5 13 5.042 19.21 14z"/>
            <path d="M26.468 20.42c.624-.48 1.189-.72 1.696-.72h6.023c.546 0 .984.25 1.316.75.331.499.497 1.068.497 1.707 0 1.239-.604 1.858-1.813 1.858h-5.38l-6.491 5.214c-.78.6-1.442.85-1.988.75-.546-.1-.965-.26-1.257-.48-.293-.22-.44-.37-.44-.45l-5.087-5.333c-.428-.56-.604-1.259-.526-2.098.078-.839.37-1.478.877-1.918l7.018-5.274c.35-.32.76-.46 1.228-.42.467.04.848.24 1.14.6.292.36.419.78.38 1.258-.04.48-.234.88-.585 1.2l-4.503 3.475 3.217 3.357 4.678-3.477z"/>
        </g>
    </g>
</svg>
